<svg width="180" height="40" viewBox="0 0 180 40" fill="none" xmlns="http://www.w3.org/2000/svg">
  <defs>
    <linearGradient id="gradient" x1="0%" y1="0%" x2="100%" y2="0%">
      <stop offset="0%" stop-color="#3B82F6" />
      <stop offset="100%" stop-color="#8B5CF6" />
    </linearGradient>
  </defs>
  <path d="M20 0C8.954 0 0 8.954 0 20C0 31.046 8.954 40 20 40C31.046 40 40 31.046 40 20C40 8.954 31.046 0 20 0ZM20 8C26.627 8 32 13.373 32 20C32 26.627 26.627 32 20 32C13.373 32 8 26.627 8 20C8 13.373 13.373 8 20 8Z" fill="url(#gradient)"/>
  <path d="M20 12C15.582 12 12 15.582 12 20C12 24.418 15.582 28 20 28C24.418 28 28 24.418 28 20C28 15.582 24.418 12 20 12ZM20 16C22.209 16 24 17.791 24 20C24 22.209 22.209 24 20 24C17.791 24 16 22.209 16 20C16 17.791 17.791 16 20 16Z" fill="url(#gradient)"/>
  <path d="M52 12H60.5C64.5 12 67 14.5 67 18C67 21.5 64.5 24 60.5 24H56V30H52V12ZM60 20C61.5 20 63 19 63 18C63 17 61.5 16 60 16H56V20H60Z" fill="url(#gradient)"/>
  <path d="M70 12H74V22C74 23.5 75 26 78 26C81 26 82 23.5 82 22V12H86V22C86 26 83 30 78 30C73 30 70 26 70 22V12Z" fill="url(#gradient)"/>
  <path d="M90 12H94V30H90V12Z" fill="url(#gradient)"/>
  <path d="M98 12H102V26H110V30H98V12Z" fill="url(#gradient)"/>
  <path d="M112 12H116V26H124V30H112V12Z" fill="url(#gradient)"/>
  <path d="M126 12H130V22C130 23.5 131 26 134 26C137 26 138 23.5 138 22V12H142V22C142 26 139 30 134 30C129 30 126 26 126 22V12Z" fill="url(#gradient)"/>
  <path d="M144 12H148V16H152C155.5 16 158 18.5 158 21C158 23.5 155.5 26 152 26H148V30H144V12ZM151.5 22C152.5 22 154 21.5 154 21C154 20.5 152.5 20 151.5 20H148V22H151.5Z" fill="url(#gradient)"/>
  <path d="M160 12H164V16H168C171.5 16 174 18.5 174 21C174 23.5 171.5 26 168 26H164V30H160V12ZM167.5 22C168.5 22 170 21.5 170 21C170 20.5 168.5 20 167.5 20H164V22H167.5Z" fill="url(#gradient)"/>
  <path d="M176 12H180V30H176V12Z" fill="url(#gradient)"/>
</svg>
